<svg fill="none" height="36" viewBox="0 0 124 36" width="124" xmlns="http://www.w3.org/2000/svg" xmlns:xlink="http://www.w3.org/1999/xlink"><mask id="a" height="36" maskUnits="userSpaceOnUse" width="35" x="0" y="0"><circle cx="17.3302" cy="18.3248" fill="#f4b000" r="16.4422" transform="matrix(.99845601 -.05554809 .05554809 .99845601 -.99115 .990953)"/></mask><mask id="b" height="37" maskUnits="userSpaceOnUse" width="37" x="-1" y="0"><circle fill="#f4b000" r="16.4422" transform="matrix(-.10434 -.994542 -.994542 .10434 17.2239 18.2957)"/></mask><g fill="#fff"><path d="m45.5483 25.2333c.7007 0 1.6417-.0401 2.6027-.0401 1.4214 0 2.4224.0401 3.3233.0401.0601 0 .0601-.2403 0-.2403-1.8218 0-2.1422-.2602-2.1422-1.4614v-9.1692c0-.7208.3604-1.0611 1.1612-1.0611h.6006c1.7818 0 2.8629.9209 3.3233 2.983.0201.0801.2403.06.2403-.02l-.0401-3.3634c0-.1201-.06-.1802-.2002-.1802h-8.7287c-.0801 0-.0801.2403 0 .2403 1.2212 0 1.4214.2402 1.4214 1.3813v9.2693c0 1.1612-.2202 1.3814-1.5616 1.3814-.08 0-.08.2403 0 .2403z"/><path d="m66.9372 22.0501c-.5806 1.8018-1.8019 2.6226-3.8839 2.6226h-.6607c-.6407 0-.9209-.3604-.9209-1.1411v-4.5246h1.6416c1.6016 0 2.4425.6807 2.4425 1.7618 0 .06.2402.06.2402 0 0-.7608-.06-1.3614-.06-2.0421 0-.5405.02-.9209.02-1.8018 0-.0801-.2203-.0801-.2203 0 0 .941-.8208 1.5216-2.4024 1.5216h-1.6616v-4.0841c0-.7208.3603-1.0611 1.1611-1.0611h.6006c1.6617 0 2.6427.7207 3.0831 2.2823.0401.0801.2403.04.2403-.02l-.0401-2.6627c0-.1201-.04-.1802-.2002-.1802h-8.4885c-.0801 0-.0801.2403 0 .2403 1.2212 0 1.4214.2402 1.4214 1.3813v9.2693c0 1.1612-.2002 1.3814-1.4214 1.3814-.0801 0-.0801.2403 0 .2403h8.8489c.2402 0 .3003-.0801.3003-.3003 0-.9009.1001-2.0621.2002-2.8429 0-.06-.2202-.1201-.2402-.04z"/><path d="m84.0094 24.993c-.6606 0-1.1811-.6006-2.1221-2.5025l-5.005-9.8499c-.04-.1001-.3403-.0801-.3604 0l-4.3443 9.5496c-1.0211 2.2623-1.5216 2.8028-2.6026 2.8028-.1001 0-.1001.2403 0 .2403.9009 0 1.3613-.0801 2.4024-.0801 1.021 0 1.5615.0801 2.3623.0801.1202 0 .1202-.2403 0-.2403-1.5015 0-2.3423-1.001-1.6216-2.6026l3.1031-6.8669 3.964 7.8279c.6607 1.3013.5205 1.6416-.5806 1.6416-.1201 0-.1201.2403 0 .2403.8208 0 1.3814-.0801 2.3023-.0801.8008 0 1.7017.0801 2.5025.0801.1202 0 .1202-.2403 0-.2403z"/><path d="m90.132 23.6116v-9.2292c0-1.1412.2002-1.4214 1.4214-1.4214.0801 0 .0801-.2403 0-.2403-.6807 0-1.5415.0601-2.5625.0601-.961 0-1.8619-.0601-2.5626-.0601-.0601 0-.0601.2403 0 .2403 1.2212 0 1.4615.2402 1.4615 1.3813v9.2693c0 1.1612-.2403 1.3814-1.4615 1.3814-.0601 0-.0601.2403 0 .2403.7007 0 1.6016-.0401 2.5626-.0401 1.021 0 1.8618.0401 2.5625.0401.0801 0 .0801-.2403 0-.2403-1.2412 0-1.4214-.2202-1.4214-1.3814z"/><path d="m101.359 25.4735c3.804 0 7.027-2.9029 7.027-6.6266 0-3.2233-2.382-6.3464-6.326-6.3464-3.2433 0-7.0472 2.1421-7.0472 6.4865 0 3.5235 2.5025 6.4865 6.3462 6.4865zm.661-.5005c-2.6228 0-4.5447-2.8028-4.5447-6.7267 0-3.2433 1.3414-5.2053 3.7837-5.2053 2.903 0 4.665 2.7228 4.665 6.3864 0 3.5636-1.682 5.5456-3.904 5.5456z"/><path d="m119.39 12.5005c-3.884 0-7.448 2.5025-7.448 6.4264 0 3.0031 2.082 6.5466 7.268 6.5466 1.181 0 2.422-.2002 3.663-.6607.241-.1001.261-.1401.321-.4604l.3-2.7227c0-.0801-.2-.1202-.24-.0201-1.061 2.3424-2.403 3.4435-4.104 3.4435-2.783 0-4.685-2.983-4.685-6.6667 0-3.2032 1.441-5.3854 4.144-5.3854 2.042 0 3.584 1.2412 4.465 3.3033.04.1001.22.0601.22-.02l-.241-2.7828c-.04-.2803-.08-.3804-.32-.4605-.761-.3403-2.222-.5405-3.343-.5405z"/></g><g mask="url(#a)"><path clip-rule="evenodd" d="m3.68708 33.7776 24.79462-29.09718.4957.42234-24.79469 29.09724zm.36001.7493 27.64301-26.40621.4498.47087-27.64301 26.40614zm29.68561-22.1512-30.19152 23.4498.33118.4264-1.05635.6581-.7584.1512.05698.2859-.20474.1275.03606.0579-1.30202.6166.278708.5885.009019-.0043.012041.034 5.274522-1.8714 33.45772-6.669-.1273-.6386-29.0598 5.7923 26.4829-9.3962-.2177-.6136-30.3267 10.7599 29.0454-13.7551-.2788-.5885-28.65301 13.5693 28.15931-17.5449-.3443-.5527-29.56652 18.4217 29.34282-22.7906z" fill="#f4b000" fill-rule="evenodd"/><g mask="url(#b)"><path clip-rule="evenodd" d="m4.1437 34.2278 24.7722-29.11634-.496-.42196-24.77216 29.1163zm-.79718-.2359 21.66148-31.4993-.5366-.36897-21.66143 31.49927zm17.13538-32.83749-18.33667 33.54389-.4737-.259-.48129 1.1477-.02833.7728-.291309-.0106-.093327.2225-.062989-.0264-.40114 1.3836-.625421-.1813.002763-.0095-.035344-.0065 1.006697-5.506 1.2497-34.09253.65075.02386-1.08544 29.61107 5.05389-27.641557.64056.117122-5.78741 31.653435 8.94851-30.86606.6254.18132-8.8281 30.45084 12.8317-30.59717.6005.25184-13.47234 32.12473 17.82094-32.600438z" fill="#f4b000" fill-rule="evenodd"/></g></g></svg>